<?xml version="1.0" encoding="UTF-8" standalone="no"?>
<!-- Created with Inkscape (http://www.inkscape.org/) -->

<svg
   width="50"
   height="50"
   viewBox="0 0 13.229166 13.229167"
   version="1.1"
   id="svg5"
   inkscape:version="1.1.2 (0a00cf5339, 2022-02-04)"
   sodipodi:docname="in.svg"
   xmlns:inkscape="http://www.inkscape.org/namespaces/inkscape"
   xmlns:sodipodi="http://sodipodi.sourceforge.net/DTD/sodipodi-0.dtd"
   xmlns="http://www.w3.org/2000/svg"
   xmlns:svg="http://www.w3.org/2000/svg"
   xmlns:rdf="http://www.w3.org/1999/02/22-rdf-syntax-ns#"
   xmlns:cc="http://creativecommons.org/ns#"
   xmlns:dc="http://purl.org/dc/elements/1.1/">
  <title
     id="title824">LinkedIn SVG logo imitation</title>
  <sodipodi:namedview
     id="namedview7"
     pagecolor="#505050"
     bordercolor="#ffffff"
     borderopacity="1"
     inkscape:pageshadow="0"
     inkscape:pageopacity="1"
     inkscape:pagecheckerboard="true"
     inkscape:document-units="px"
     showgrid="false"
     units="px"
     width="793.70081px"
     inkscape:snap-global="false"
     inkscape:snap-bbox="true"
     inkscape:snap-bbox-midpoints="true"
     inkscape:snap-object-midpoints="true"
     inkscape:snap-bbox-edge-midpoints="true"
     inkscape:bbox-nodes="true"
     inkscape:bbox-paths="true"
     inkscape:snap-page="true"
     inkscape:zoom="16"
     inkscape:cx="16.71875"
     inkscape:cy="23.34375"
     inkscape:window-width="2560"
     inkscape:window-height="1369"
     inkscape:window-x="0"
     inkscape:window-y="34"
     inkscape:window-maximized="1"
     inkscape:current-layer="layer1" />
  <defs
     id="defs2" />
  <g
     inkscape:label="Layer 1"
     inkscape:groupmode="layer"
     id="layer1">
    <path
       id="path89"
       style="fill:#ffffff;fill-rule:evenodd;stroke-width:0.397705;fill-opacity:1"
       d="M 2.0841507,0.66145834 A 1.423311,1.4251407 0 0 0 0.66145821,2.0867516 1.423311,1.4251407 0 0 0 2.0841507,3.5112731 1.423311,1.4251407 0 0 0 3.5076143,2.0867516 1.423311,1.4251407 0 0 0 2.0841507,0.66145834 Z M 9.530551,4.4288007 c -1.4788578,0 -2.1773968,1.1018982 -2.2912603,1.3002807 V 4.6209491 H 4.8671099 v 7.9382719 h 2.3721808 l 0.1001906,0.0039 -0.00313,-3.8475956 C 7.334858,6.7973426 8.255952,6.6555515 8.6210942,6.6226871 9.0112259,6.5875738 10.0908,6.4747526 10.0908,8.5480288 c 0,2.0437492 0.0061,4.0196792 0.0061,4.0196792 h 2.470838 l -0.0107,-4.5027508 C 12.549145,4.8142036 10.993138,4.4288007 9.530551,4.4288007 Z M 0.8718569,4.6379257 V 12.558449 H 3.3604126 V 4.6379257 Z" />
  </g>
  <metadata
     id="metadata822">
    <rdf:RDF>
      <cc:Work
         rdf:about="">
        <dc:description>LinkedIn SVG logo imitation for use in personal websites</dc:description>
        <dc:title>LinkedIn SVG logo imitation</dc:title>
      </cc:Work>
    </rdf:RDF>
  </metadata>
</svg>
